<svg xmlns="http://www.w3.org/2000/svg" xmlns:xlink="http://www.w3.org/1999/xlink" width="1317" zoomAndPan="magnify" viewBox="0 0 987.75 187.499995" height="250" preserveAspectRatio="xMidYMid meet" version="1.0"><defs><g/><clipPath id="id1"><path d="M 10.015625 9.351562 L 186.589844 9.351562 L 186.589844 177.695312 L 10.015625 177.695312 Z M 10.015625 9.351562 " clip-rule="nonzero"/></clipPath></defs><g clip-path="url(#id1)"><path fill="#5ce1e6" d="M 181.234375 9.394531 C 180.960938 9.398438 180.683594 9.425781 180.414062 9.472656 L 180.398438 9.472656 L 153.449219 14.070312 C 151.734375 14.363281 150.300781 15.535156 149.664062 17.152344 C 149.664062 17.160156 149.664062 17.164062 149.664062 17.167969 L 137.160156 49.195312 L 15.109375 52.234375 C 13.707031 52.269531 12.390625 52.902344 11.476562 53.960938 C 10.5625 55.015625 10.125 56.417969 10.296875 57.816406 L 17.03125 113.476562 C 17.3125 115.8125 19.242188 117.664062 21.589844 117.847656 L 108.601562 124.757812 L 125.847656 138.304688 C 125.867188 138.320312 125.886719 138.335938 125.90625 138.351562 C 125.925781 138.363281 125.949219 138.367188 125.96875 138.382812 C 125.984375 138.394531 126.007812 138.414062 126.027344 138.425781 C 129.175781 140.773438 129.953125 143.96875 129.511719 145.746094 C 129.257812 146.757812 128.871094 147.5 127.949219 148.074219 C 127.03125 148.648438 125.445312 149.0625 122.726562 148.90625 C 122.71875 148.90625 122.707031 148.90625 122.695312 148.90625 C 122.609375 148.902344 122.511719 148.902344 122.425781 148.90625 L 122.378906 148.90625 L 18.605469 149.207031 L 18.589844 149.207031 C 15.863281 149.191406 13.566406 151.476562 13.578125 154.199219 C 13.589844 156.921875 15.894531 159.199219 18.621094 159.160156 L 18.632812 159.160156 L 26.21875 159.144531 C 23.402344 160.9375 21.511719 164.078125 21.511719 167.640625 C 21.511719 173.1875 26.058594 177.726562 31.609375 177.726562 C 37.160156 177.726562 41.707031 173.1875 41.707031 167.640625 C 41.707031 164.058594 39.8125 160.886719 36.96875 159.097656 L 122.425781 158.855469 C 119.347656 160.589844 117.246094 163.878906 117.246094 167.640625 C 117.246094 173.1875 121.792969 177.726562 127.34375 177.726562 C 132.898438 177.726562 137.445312 173.1875 137.445312 167.640625 C 137.445312 162.824219 134.019531 158.765625 129.480469 157.78125 C 133.773438 156.265625 137.070312 153.140625 139.109375 148.359375 C 139.140625 148.304688 139.164062 148.242188 139.183594 148.179688 C 140.75 141.929688 137.976562 135.132812 132.25 130.714844 C 132.238281 130.699219 132.222656 130.683594 132.207031 130.667969 C 132.191406 130.660156 132.1875 130.632812 132.175781 130.625 C 132.125 130.5625 132.070312 130.507812 132.007812 130.457031 L 119.789062 120.886719 L 157.898438 23.398438 L 182.078125 19.285156 L 182.09375 19.285156 C 184.632812 18.875 186.492188 16.511719 186.273438 13.945312 C 186.054688 11.375 183.808594 9.359375 181.230469 9.394531 Z M 133.480469 56.878906 L 126.453125 74.871094 L 117.292969 74.871094 L 117.292969 57.285156 Z M 113.796875 57.375 L 113.796875 74.871094 L 96.886719 74.871094 L 96.886719 57.800781 Z M 93.386719 57.875 L 93.386719 74.871094 L 76.476562 74.871094 L 76.476562 58.300781 Z M 72.976562 58.390625 L 72.976562 74.871094 L 56.066406 74.871094 L 56.066406 58.8125 Z M 52.570312 58.902344 L 52.570312 74.871094 L 35.65625 74.871094 L 35.65625 59.328125 Z M 32.160156 59.402344 L 32.160156 74.871094 L 19.757812 74.871094 L 17.925781 59.765625 Z M 20.183594 78.351562 L 32.160156 78.351562 L 32.160156 94.152344 L 22.089844 94.152344 Z M 35.65625 78.351562 L 52.570312 78.351562 L 52.570312 94.152344 L 35.65625 94.152344 Z M 56.066406 78.351562 L 72.976562 78.351562 L 72.976562 94.152344 L 56.066406 94.152344 Z M 76.476562 78.351562 L 93.386719 78.351562 L 93.386719 94.152344 L 76.476562 94.152344 Z M 96.886719 78.351562 L 113.796875 78.351562 L 113.796875 94.152344 L 96.886719 94.152344 Z M 117.292969 78.351562 L 125.105469 78.351562 L 118.929688 94.152344 L 117.292969 94.152344 Z M 22.519531 97.628906 L 32.164062 97.628906 L 32.164062 108.972656 L 23.804688 108.304688 Z M 35.660156 97.628906 L 52.570312 97.628906 L 52.570312 110.589844 L 35.660156 109.242188 Z M 56.070312 97.628906 L 72.980469 97.628906 L 72.980469 112.207031 L 56.070312 110.875 Z M 76.476562 97.628906 L 93.390625 97.628906 L 93.390625 113.839844 L 76.476562 112.496094 Z M 96.886719 97.628906 L 113.800781 97.628906 L 113.800781 107.246094 L 110.589844 115.457031 C 110.171875 115.257812 109.71875 115.132812 109.257812 115.09375 L 96.886719 114.113281 Z M 117.296875 97.628906 L 117.554688 97.628906 L 117.296875 98.339844 Z M 31.617188 161.714844 C 34.917969 161.714844 37.554688 164.347656 37.554688 167.644531 C 37.554688 170.9375 34.917969 173.554688 31.617188 173.554688 C 28.320312 173.554688 25.683594 170.9375 25.683594 167.644531 C 25.683594 164.347656 28.320312 161.714844 31.617188 161.714844 Z M 127.351562 161.714844 C 130.648438 161.714844 133.285156 164.347656 133.285156 167.644531 C 133.285156 170.9375 130.648438 173.554688 127.351562 173.554688 C 124.050781 173.554688 121.414062 170.9375 121.414062 167.644531 C 121.414062 164.347656 124.050781 161.714844 127.351562 161.714844 Z M 31.617188 164.527344 C 29.828125 164.527344 28.394531 165.957031 28.394531 167.75 C 28.394531 169.539062 29.828125 170.953125 31.617188 170.953125 C 33.410156 170.953125 34.84375 169.539062 34.84375 167.75 C 34.84375 165.957031 33.410156 164.527344 31.617188 164.527344 Z M 127.351562 164.527344 C 125.558594 164.527344 124.125 165.957031 124.125 167.75 C 124.125 169.539062 125.558594 170.953125 127.351562 170.953125 C 129.144531 170.953125 130.574219 169.539062 130.574219 167.75 C 130.574219 165.957031 129.144531 164.527344 127.351562 164.527344 Z M 127.351562 164.527344 " fill-opacity="1" fill-rule="nonzero"/></g><g fill="#000000" fill-opacity="1"><g transform="translate(174.352692, 134.654799)"><g><path d="M 77.8125 -57.484375 L 60.484375 -18.453125 L 59.609375 -16.578125 L 43.890625 -16.578125 L 43.015625 -18.453125 L 25.5625 -57.609375 L 25.5625 3.125 L 8.109375 3.125 L 8.109375 -90.40625 L 29.796875 -90.40625 L 30.671875 -88.546875 L 52 -39.90625 L 72.953125 -88.546875 L 73.828125 -90.40625 L 95.890625 -90.40625 L 95.890625 3.125 L 77.8125 3.125 Z M 77.8125 -57.484375 "/></g></g></g><g fill="#000000" fill-opacity="1"><g transform="translate(278.346099, 134.654799)"><g><path d="M -1.5 -4.234375 L 32.671875 -88.421875 L 33.421875 -90.40625 L 50.625 -90.40625 L 51.375 -88.421875 L 85.046875 -4.234375 L 86.171875 -1.375 L 83.296875 -0.25 L 72.453125 4.109375 L 69.578125 5.359375 L 68.46875 2.375 L 59.484375 -20.578125 L 23.3125 -20.578125 L 14.34375 2.125 L 13.21875 5.109375 L 10.34375 3.859375 L 0.25 -0.25 L -2.75 -1.375 Z M 29.5625 -36.78125 L 53.125 -36.78125 L 41.40625 -66.96875 Z M 29.5625 -36.78125 "/></g></g></g><g fill="#000000" fill-opacity="1"><g transform="translate(361.640572, 134.654799)"><g><path d="M 59.234375 2.75 L 48.390625 -20.953125 C 45.972656 -26.273438 42.9375 -30.015625 39.28125 -32.171875 C 38.195312 -32.835938 36.988281 -33.398438 35.65625 -33.859375 C 34.332031 -34.316406 32.878906 -34.671875 31.296875 -34.921875 C 29.722656 -35.171875 28.019531 -35.335938 26.1875 -35.421875 L 26.1875 3.125 L 8.109375 3.125 L 8.109375 -89.90625 L 10.96875 -90.15625 C 13.21875 -90.320312 15.398438 -90.488281 17.515625 -90.65625 C 19.640625 -90.820312 21.695312 -90.945312 23.6875 -91.03125 C 27.675781 -91.28125 32.039062 -91.40625 36.78125 -91.40625 C 42.351562 -91.40625 47.300781 -90.820312 51.625 -89.65625 C 56.03125 -88.414062 59.6875 -86.628906 62.59375 -84.296875 C 65.675781 -81.890625 68.003906 -79.0625 69.578125 -75.8125 C 71.160156 -72.570312 71.953125 -69 71.953125 -65.09375 C 71.953125 -58.195312 69.832031 -52.585938 65.59375 -48.265625 C 62.9375 -45.515625 59.488281 -43.226562 55.25 -41.40625 C 55.90625 -40.90625 56.503906 -40.40625 57.046875 -39.90625 C 57.585938 -39.40625 58.109375 -38.820312 58.609375 -38.15625 C 59.359375 -37.40625 60.066406 -36.59375 60.734375 -35.71875 C 61.398438 -34.851562 62.0625 -33.878906 62.71875 -32.796875 C 63.96875 -30.796875 65.257812 -28.34375 66.59375 -25.4375 L 76.0625 -5.109375 L 77.3125 -2.25 L 74.578125 -0.875 L 63.46875 4.359375 L 60.609375 5.609375 Z M 36.78125 -75.203125 C 35.375 -75.203125 34.046875 -75.203125 32.796875 -75.203125 C 31.546875 -75.203125 30.382812 -75.160156 29.3125 -75.078125 C 28.976562 -75.078125 28.601562 -75.054688 28.1875 -75.015625 C 27.769531 -74.972656 27.394531 -74.953125 27.0625 -74.953125 C 26.726562 -74.953125 26.4375 -74.953125 26.1875 -74.953125 L 26.1875 -51.625 L 36.78125 -51.625 C 42.101562 -51.625 46.382812 -52.75 49.625 -55 C 52.457031 -57.070312 53.875 -60.0625 53.875 -63.96875 C 53.875 -65.550781 53.5625 -66.984375 52.9375 -68.265625 C 52.3125 -69.554688 51.289062 -70.742188 49.875 -71.828125 C 48.46875 -72.910156 46.679688 -73.742188 44.515625 -74.328125 C 42.359375 -74.910156 39.78125 -75.203125 36.78125 -75.203125 Z M 36.78125 -75.203125 "/></g></g></g><g fill="#000000" fill-opacity="1"><g transform="translate(438.575755, 134.654799)"><g><path d="M 3.125 -43.765625 C 3.125 -50.503906 4.117188 -56.78125 6.109375 -62.59375 C 8.109375 -68.5 11.019531 -73.613281 14.84375 -77.9375 C 18.664062 -82.34375 23.320312 -85.753906 28.8125 -88.171875 C 31.550781 -89.410156 34.476562 -90.34375 37.59375 -90.96875 C 40.71875 -91.59375 43.984375 -91.90625 47.390625 -91.90625 C 50.796875 -91.90625 54.054688 -91.59375 57.171875 -90.96875 C 60.296875 -90.34375 63.226562 -89.367188 65.96875 -88.046875 C 68.707031 -86.796875 71.238281 -85.296875 73.5625 -83.546875 C 75.894531 -81.804688 78.019531 -79.8125 79.9375 -77.5625 C 83.757812 -73.238281 86.707031 -68.171875 88.78125 -62.359375 C 90.78125 -56.535156 91.78125 -50.335938 91.78125 -43.765625 C 91.78125 -37.203125 90.78125 -31.007812 88.78125 -25.1875 C 88.125 -23.28125 87.359375 -21.410156 86.484375 -19.578125 C 85.609375 -17.742188 84.628906 -16.015625 83.546875 -14.390625 C 82.472656 -12.773438 81.3125 -11.222656 80.0625 -9.734375 C 78.144531 -7.484375 76 -5.484375 73.625 -3.734375 C 71.257812 -1.992188 68.75 -0.5 66.09375 0.75 C 60.601562 3.320312 54.363281 4.609375 47.375 4.609375 C 40.394531 4.609375 34.164062 3.320312 28.6875 0.75 C 27.351562 0.0820312 26.0625 -0.625 24.8125 -1.375 C 23.570312 -2.125 22.367188 -2.929688 21.203125 -3.796875 C 20.035156 -4.671875 18.910156 -5.609375 17.828125 -6.609375 C 16.753906 -7.609375 15.757812 -8.648438 14.84375 -9.734375 C 11.019531 -14.140625 8.109375 -19.289062 6.109375 -25.1875 C 4.117188 -31.007812 3.125 -37.203125 3.125 -43.765625 Z M 21.453125 -43.765625 C 21.453125 -41.691406 21.597656 -39.632812 21.890625 -37.59375 C 22.179688 -35.5625 22.613281 -33.546875 23.1875 -31.546875 C 23.851562 -29.640625 24.601562 -27.832031 25.4375 -26.125 C 26.269531 -24.414062 27.269531 -22.816406 28.4375 -21.328125 C 28.769531 -20.828125 29.140625 -20.367188 29.546875 -19.953125 C 29.960938 -19.535156 30.378906 -19.117188 30.796875 -18.703125 C 31.210938 -18.285156 31.648438 -17.867188 32.109375 -17.453125 C 32.566406 -17.035156 33.046875 -16.660156 33.546875 -16.328125 C 34.046875 -16.003906 34.546875 -15.675781 35.046875 -15.34375 C 35.546875 -15.007812 36.039062 -14.675781 36.53125 -14.34375 C 39.695312 -12.675781 43.316406 -11.84375 47.390625 -11.84375 C 48.878906 -11.84375 50.289062 -11.925781 51.625 -12.09375 C 52.957031 -12.257812 54.203125 -12.53125 55.359375 -12.90625 C 56.523438 -13.28125 57.609375 -13.71875 58.609375 -14.21875 C 61.847656 -15.789062 64.550781 -17.953125 66.71875 -20.703125 C 67.46875 -21.617188 68.128906 -22.59375 68.703125 -23.625 C 69.285156 -24.664062 69.828125 -25.789062 70.328125 -27 C 70.828125 -28.207031 71.285156 -29.429688 71.703125 -30.671875 C 72.867188 -34.742188 73.453125 -39.109375 73.453125 -43.765625 C 73.453125 -47.921875 72.828125 -51.914062 71.578125 -55.75 C 70.410156 -59.570312 68.664062 -62.976562 66.34375 -65.96875 C 64.09375 -68.875 61.390625 -71.203125 58.234375 -72.953125 C 55.078125 -74.617188 51.460938 -75.453125 47.390625 -75.453125 C 46.390625 -75.453125 45.390625 -75.410156 44.390625 -75.328125 C 43.390625 -75.242188 42.429688 -75.097656 41.515625 -74.890625 C 40.609375 -74.679688 39.738281 -74.429688 38.90625 -74.140625 C 38.070312 -73.847656 37.28125 -73.492188 36.53125 -73.078125 C 34.875 -72.328125 33.378906 -71.410156 32.046875 -70.328125 C 30.710938 -69.253906 29.507812 -68.007812 28.4375 -66.59375 C 26.1875 -63.769531 24.4375 -60.441406 23.1875 -56.609375 C 22.03125 -52.617188 21.453125 -48.335938 21.453125 -43.765625 Z M 21.453125 -43.765625 "/></g></g></g><g fill="#000000" fill-opacity="1"><g transform="translate(533.466618, 134.654799)"><g><path d="M 21.453125 -43.765625 C 21.453125 -42.109375 21.515625 -40.507812 21.640625 -38.96875 C 21.765625 -37.425781 21.972656 -35.945312 22.265625 -34.53125 C 22.554688 -33.125 22.90625 -31.753906 23.3125 -30.421875 C 24.5625 -26.515625 26.3125 -23.191406 28.5625 -20.453125 C 29.300781 -19.535156 30.066406 -18.679688 30.859375 -17.890625 C 31.648438 -17.097656 32.503906 -16.390625 33.421875 -15.765625 C 34.335938 -15.148438 35.289062 -14.59375 36.28125 -14.09375 C 39.28125 -12.675781 42.566406 -11.96875 46.140625 -11.96875 C 49.878906 -11.96875 53.082031 -12.382812 55.75 -13.21875 C 58.570312 -14.132812 61.269531 -15.378906 63.84375 -16.953125 L 67.09375 -18.828125 L 68.34375 -15.34375 L 71.953125 -5.484375 L 72.953125 -2.875 L 70.578125 -1.625 C 67.253906 0.125 63.515625 1.625 59.359375 2.875 C 55.117188 4.03125 50.253906 4.609375 44.765625 4.609375 C 38.617188 4.609375 32.988281 3.484375 27.875 1.234375 C 22.757812 -1.003906 18.332031 -4.242188 14.59375 -8.484375 C 10.9375 -12.640625 8.109375 -17.664062 6.109375 -23.5625 C 4.117188 -29.46875 3.125 -36.035156 3.125 -43.265625 C 3.125 -50.253906 4.117188 -56.695312 6.109375 -62.59375 C 8.109375 -68.582031 10.976562 -73.738281 14.71875 -78.0625 C 18.539062 -82.46875 23.113281 -85.878906 28.4375 -88.296875 C 31.09375 -89.453125 33.914062 -90.34375 36.90625 -90.96875 C 39.90625 -91.59375 43.023438 -91.90625 46.265625 -91.90625 C 50.753906 -91.90625 54.785156 -91.488281 58.359375 -90.65625 C 61.929688 -89.820312 65.34375 -88.660156 68.59375 -87.171875 L 71.078125 -85.921875 L 70.203125 -83.171875 L 66.59375 -73.203125 L 65.34375 -69.953125 L 62.234375 -71.453125 C 59.816406 -72.703125 57.363281 -73.660156 54.875 -74.328125 C 54.039062 -74.578125 53.1875 -74.765625 52.3125 -74.890625 C 51.4375 -75.015625 50.476562 -75.117188 49.4375 -75.203125 C 48.40625 -75.285156 47.304688 -75.328125 46.140625 -75.328125 C 44.390625 -75.328125 42.679688 -75.160156 41.015625 -74.828125 C 39.359375 -74.492188 37.78125 -73.992188 36.28125 -73.328125 C 34.789062 -72.660156 33.398438 -71.828125 32.109375 -70.828125 C 30.816406 -69.828125 29.628906 -68.660156 28.546875 -67.328125 C 27.472656 -66.003906 26.5 -64.53125 25.625 -62.90625 C 24.75 -61.289062 23.976562 -59.484375 23.3125 -57.484375 C 22.070312 -53.492188 21.453125 -48.921875 21.453125 -43.765625 Z M 21.453125 -43.765625 "/></g></g></g><g fill="#000000" fill-opacity="1"><g transform="translate(607.526944, 134.654799)"><g><path d="M 9.734375 -17.328125 C 12.722656 -14.835938 16.085938 -12.800781 19.828125 -11.21875 C 23.566406 -9.644531 27.929688 -8.859375 32.921875 -8.859375 C 38.910156 -8.859375 43.648438 -10.101562 47.140625 -12.59375 C 50.628906 -15.09375 52.375 -18.460938 52.375 -22.703125 C 52.375 -24.441406 52.125 -26.054688 51.625 -27.546875 C 51.125 -29.046875 50.144531 -30.484375 48.6875 -31.859375 C 47.238281 -33.234375 45.203125 -34.601562 42.578125 -35.96875 C 39.960938 -37.34375 36.578125 -38.820312 32.421875 -40.40625 C 27.929688 -42.144531 24.128906 -43.867188 21.015625 -45.578125 C 17.898438 -47.285156 15.382812 -49.15625 13.46875 -51.1875 C 11.550781 -53.226562 10.175781 -55.472656 9.34375 -57.921875 C 8.519531 -60.378906 8.109375 -63.1875 8.109375 -66.34375 C 8.109375 -69.414062 8.75 -72.320312 10.03125 -75.0625 C 11.320312 -77.8125 13.234375 -80.203125 15.765625 -82.234375 C 18.304688 -84.273438 21.425781 -85.875 25.125 -87.03125 C 28.820312 -88.195312 33.039062 -88.78125 37.78125 -88.78125 C 42.9375 -88.78125 47.550781 -88.257812 51.625 -87.21875 C 55.695312 -86.1875 59.726562 -84.710938 63.71875 -82.796875 L 59.359375 -72.703125 C 56.535156 -74.367188 53.226562 -75.757812 49.4375 -76.875 C 45.65625 -78 41.6875 -78.5625 37.53125 -78.5625 C 32.050781 -78.5625 27.726562 -77.5 24.5625 -75.375 C 21.40625 -73.257812 19.828125 -70.457031 19.828125 -66.96875 C 19.828125 -65.300781 20.054688 -63.820312 20.515625 -62.53125 C 20.972656 -61.25 21.882812 -60.003906 23.25 -58.796875 C 24.625 -57.585938 26.535156 -56.359375 28.984375 -55.109375 C 31.441406 -53.867188 34.707031 -52.5 38.78125 -51 C 43.601562 -49.175781 47.675781 -47.304688 51 -45.390625 C 54.320312 -43.484375 56.984375 -41.445312 58.984375 -39.28125 C 60.984375 -37.125 62.414062 -34.796875 63.28125 -32.296875 C 64.15625 -29.804688 64.59375 -27.0625 64.59375 -24.0625 C 64.59375 -19.988281 63.800781 -16.375 62.21875 -13.21875 C 60.644531 -10.0625 58.460938 -7.378906 55.671875 -5.171875 C 52.890625 -2.972656 49.546875 -1.3125 45.640625 -0.1875 C 41.734375 0.9375 37.492188 1.5 32.921875 1.5 C 26.847656 1.5 21.316406 0.691406 16.328125 -0.921875 C 11.347656 -2.546875 7.148438 -4.691406 3.734375 -7.359375 Z M 9.734375 -17.328125 "/></g></g></g><g fill="#000000" fill-opacity="1"><g transform="translate(678.352185, 134.654799)"><g><path d="M 66.09375 -39.78125 L 23.0625 -39.78125 L 23.0625 0 L 11.21875 0 L 11.21875 -87.296875 L 23.0625 -87.296875 L 23.0625 -50 L 66.09375 -50 L 66.09375 -87.296875 L 77.9375 -87.296875 L 77.9375 0 L 66.09375 0 Z M 66.09375 -39.78125 "/></g></g></g><g fill="#000000" fill-opacity="1"><g transform="translate(767.507194, 134.654799)"><g><path d="M 6.234375 -43.765625 C 6.234375 -50.171875 7.164062 -56.113281 9.03125 -61.59375 C 10.90625 -67.082031 13.609375 -71.84375 17.140625 -75.875 C 20.679688 -79.914062 24.984375 -83.078125 30.046875 -85.359375 C 35.117188 -87.640625 40.898438 -88.78125 47.390625 -88.78125 C 53.785156 -88.78125 59.539062 -87.597656 64.65625 -85.234375 C 69.769531 -82.867188 74.09375 -79.644531 77.625 -75.5625 C 81.15625 -71.488281 83.875 -66.726562 85.78125 -61.28125 C 87.695312 -55.84375 88.65625 -50.003906 88.65625 -43.765625 C 88.65625 -37.535156 87.71875 -31.675781 85.84375 -26.1875 C 83.976562 -20.695312 81.257812 -15.894531 77.6875 -11.78125 C 74.113281 -7.664062 69.789062 -4.421875 64.71875 -2.046875 C 59.644531 0.316406 53.867188 1.5 47.390625 1.5 C 40.898438 1.5 35.117188 0.316406 30.046875 -2.046875 C 24.984375 -4.421875 20.679688 -7.664062 17.140625 -11.78125 C 13.609375 -15.894531 10.90625 -20.695312 9.03125 -26.1875 C 7.164062 -31.675781 6.234375 -37.535156 6.234375 -43.765625 Z M 18.328125 -43.765625 C 18.328125 -39.273438 18.972656 -34.910156 20.265625 -30.671875 C 21.554688 -26.429688 23.445312 -22.691406 25.9375 -19.453125 C 28.425781 -16.210938 31.476562 -13.613281 35.09375 -11.65625 C 38.71875 -9.707031 42.816406 -8.734375 47.390625 -8.734375 C 52.210938 -8.734375 56.429688 -9.625 60.046875 -11.40625 C 63.660156 -13.195312 66.691406 -15.648438 69.140625 -18.765625 C 71.597656 -21.878906 73.445312 -25.578125 74.6875 -29.859375 C 75.9375 -34.140625 76.5625 -38.773438 76.5625 -43.765625 C 76.5625 -48.253906 75.894531 -52.578125 74.5625 -56.734375 C 73.238281 -60.890625 71.328125 -64.585938 68.828125 -67.828125 C 66.335938 -71.078125 63.285156 -73.675781 59.671875 -75.625 C 56.054688 -77.582031 51.960938 -78.5625 47.390625 -78.5625 C 42.816406 -78.5625 38.71875 -77.664062 35.09375 -75.875 C 31.476562 -74.09375 28.425781 -71.640625 25.9375 -68.515625 C 23.445312 -65.398438 21.554688 -61.722656 20.265625 -57.484375 C 18.972656 -53.242188 18.328125 -48.671875 18.328125 -43.765625 Z M 18.328125 -43.765625 "/></g></g></g><g fill="#000000" fill-opacity="1"><g transform="translate(862.398043, 134.654799)"><g><path d="M 11.21875 -87.046875 C 14.707031 -87.460938 18.46875 -87.773438 22.5 -87.984375 C 26.539062 -88.191406 30.804688 -88.296875 35.296875 -88.296875 C 40.691406 -88.296875 45.507812 -87.628906 49.75 -86.296875 C 53.988281 -84.960938 57.5625 -83.128906 60.46875 -80.796875 C 63.382812 -78.472656 65.585938 -75.671875 67.078125 -72.390625 C 68.578125 -69.109375 69.328125 -65.554688 69.328125 -61.734375 C 69.328125 -57.078125 68.429688 -52.9375 66.640625 -49.3125 C 64.859375 -45.695312 62.367188 -42.640625 59.171875 -40.140625 C 55.972656 -37.648438 52.128906 -35.757812 47.640625 -34.46875 C 43.148438 -33.1875 38.203125 -32.546875 32.796875 -32.546875 C 29.304688 -32.546875 26.0625 -32.671875 23.0625 -32.921875 L 23.0625 0 L 11.21875 0 Z M 34.296875 -42.40625 C 41.773438 -42.40625 47.53125 -44.046875 51.5625 -47.328125 C 55.59375 -50.609375 57.609375 -55.078125 57.609375 -60.734375 C 57.609375 -66.140625 55.675781 -70.421875 51.8125 -73.578125 C 47.945312 -76.734375 42.359375 -78.3125 35.046875 -78.3125 C 32.796875 -78.3125 30.671875 -78.269531 28.671875 -78.1875 C 26.679688 -78.101562 24.8125 -77.976562 23.0625 -77.8125 L 23.0625 -43.015625 C 24.394531 -42.847656 25.992188 -42.703125 27.859375 -42.578125 C 29.734375 -42.460938 31.878906 -42.40625 34.296875 -42.40625 Z M 34.296875 -42.40625 "/></g></g></g></svg>